<?xml version="1.0" encoding="UTF-8" standalone="no"?>
<!-- Created with Inkscape (http://www.inkscape.org/) -->

<svg
   xmlns:dc="http://purl.org/dc/elements/1.1/"
   xmlns:cc="http://creativecommons.org/ns#"
   xmlns:rdf="http://www.w3.org/1999/02/22-rdf-syntax-ns#"
   xmlns:svg="http://www.w3.org/2000/svg"
   xmlns="http://www.w3.org/2000/svg"
   xmlns:sodipodi="http://sodipodi.sourceforge.net/DTD/sodipodi-0.dtd"
   xmlns:inkscape="http://www.inkscape.org/namespaces/inkscape"
   width="1023.6052"
   height="261.05862"
   viewBox="0 0 270.82889 69.071752"
   version="1.1"
   id="svg8"
   inkscape:version="0.92.2 (5c3e80d, 2017-08-06)"
   sodipodi:docname="horizontal_black.svg"
   inkscape:export-filename="/home/anxhelo/Desktop/Design/Proxmove/Neutral/horizontal_color.png"
   inkscape:export-xdpi="96"
   inkscape:export-ydpi="96">
  <defs
     id="defs2" />
  <sodipodi:namedview
     id="base"
     pagecolor="#ffffff"
     bordercolor="#666666"
     borderopacity="1.0"
     inkscape:pageopacity="0.0"
     inkscape:pageshadow="2"
     inkscape:zoom="0.505625"
     inkscape:cx="419.19215"
     inkscape:cy="61.290144"
     inkscape:document-units="mm"
     inkscape:current-layer="layer1"
     inkscape:document-rotation="0"
     showgrid="false"
     borderlayer="true"
     inkscape:showpageshadow="false"
     units="px"
     inkscape:pagecheckerboard="false"
     showguides="true"
     inkscape:window-width="1366"
     inkscape:window-height="715"
     inkscape:window-x="0"
     inkscape:window-y="0"
     inkscape:window-maximized="1"
     fit-margin-top="0"
     fit-margin-left="0"
     fit-margin-right="0"
     fit-margin-bottom="0">
    <inkscape:grid
       type="xygrid"
       id="grid10"
       originx="-50.291337"
       originy="-75.409" />
  </sodipodi:namedview>
  <metadata
     id="metadata5">
    <rdf:RDF>
      <cc:Work
         rdf:about="">
        <dc:format>image/svg+xml</dc:format>
        <dc:type
           rdf:resource="http://purl.org/dc/dcmitype/StillImage" />
        <dc:title></dc:title>
      </cc:Work>
    </rdf:RDF>
  </metadata>
  <g
     inkscape:label="Layer 1"
     inkscape:groupmode="layer"
     id="layer1"
     transform="translate(-50.291296,-152.51922)">
    <g
       id="g1297"
       transform="matrix(2.8120404,0,0,2.8120404,-557.27236,-363.77272)"
       style="fill:#1a1a1a">
      <g
         transform="matrix(0.35277777,0,0,-0.35277777,218.46882,197.69232)"
         id="g76"
         style="fill:#1a1a1a">
        <path
           inkscape:connector-curvature="0"
           id="path78"
           style="fill:#1a1a1a;fill-opacity:1;fill-rule:nonzero;stroke:none"
           d="m 0,0 11.477,-6.886 1.487,-0.893 v -1.735 -12.72 l 10.941,-6.565 V 0.012 L 0,14.355 Z" />
      </g>
      <g
         transform="matrix(0.35277777,0,0,-0.35277777,216.05794,197.50662)"
         id="g80"
         style="fill:#1a1a1a">
        <path
           inkscape:connector-curvature="0"
           id="path82"
           style="fill:#1a1a1a;fill-opacity:1;fill-rule:nonzero;stroke:none"
           d="M 0,0 V -20.167 L 16.733,-30.208 V -10.04 Z" />
      </g>
      <g
         transform="matrix(0.35277777,0,0,-0.35277777,232.05937,200.43651)"
         id="g84"
         style="fill:#1a1a1a">
        <path
           inkscape:connector-curvature="0"
           id="path86"
           style="fill:#1a1a1a;fill-opacity:1;fill-rule:nonzero;stroke:none"
           d="M 0,0 1.488,0.893 12.965,7.779 V 22.134 L -10.941,7.791 V -21.021 L 0,-14.456 v 12.721 z" />
      </g>
      <g
         transform="matrix(0.35277777,0,0,-0.35277777,233.14078,201.04851)"
         id="g88"
         style="fill:#1a1a1a">
        <path
           inkscape:connector-curvature="0"
           id="path90"
           style="fill:#1a1a1a;fill-opacity:1;fill-rule:nonzero;stroke:none"
           d="m 0,0 v -20.168 l 16.733,10.041 V 10.04 Z" />
      </g>
      <g
         transform="matrix(0.35277777,0,0,-0.35277777,232.19717,189.18808)"
         id="g92"
         style="fill:#1a1a1a">
        <path
           inkscape:connector-curvature="0"
           id="path94"
           style="fill:#1a1a1a;fill-opacity:1;fill-rule:nonzero;stroke:none"
           d="m 0,0 -11.594,-6.956 -1.577,-0.946 -1.576,0.946 L -26.341,0 -37.18,-6.503 l 24.009,-14.406 24.01,14.406 z" />
      </g>
      <g
         transform="matrix(0.35277777,0,0,-0.35277777,227.55077,190.71494)"
         id="g96"
         style="fill:#1a1a1a">
        <path
           inkscape:connector-curvature="0"
           id="path98"
           style="fill:#1a1a1a;fill-opacity:1;fill-rule:nonzero;stroke:none"
           d="M 0,0 16.807,10.084 0,20.167 -16.806,10.084 Z" />
      </g>
      <g
         transform="matrix(0.35277777,0,0,-0.35277777,251.02806,194.82649)"
         id="g100"
         style="fill:#1a1a1a">
        <path
           inkscape:connector-curvature="0"
           id="path102"
           style="fill:#1a1a1a;fill-opacity:1;fill-rule:nonzero;stroke:none"
           d="m 0,0 c 0,3.87 -1.575,6.435 -4.59,6.435 -1.934,0 -3.149,-0.72 -4.005,-1.845 V -4.5 C -8.01,-5.445 -6.615,-6.39 -4.59,-6.39 -1.665,-6.39 0,-4.095 0,0 m -8.595,-9.81 v -8.009 l -5.849,-2.656 V 11.52 h 5.849 V 9.854 c 1.035,1.305 2.656,2.206 4.95,2.206 5.669,0 9.495,-4.276 9.495,-12.06 0,-7.56 -4.05,-12.015 -9.539,-12.015 -2.295,0 -3.871,0.901 -4.906,2.205" />
      </g>
      <g
         transform="matrix(0.35277777,0,0,-0.35277777,254.28265,190.76267)"
         id="g104"
         style="fill:#1a1a1a">
        <path
           inkscape:connector-curvature="0"
           id="path106"
           style="fill:#1a1a1a;fill-opacity:1;fill-rule:nonzero;stroke:none"
           d="m 0,0 h 5.85 v -2.025 c 0.674,1.44 1.979,2.565 4.274,2.565 1.936,0 3.375,-0.675 4.681,-1.755 l -0.811,-5.354 c -1.08,0.764 -2.385,1.349 -4.184,1.349 -2.026,0 -3.96,-0.99 -3.96,-4.95 V -22.994 H 0 Z" />
      </g>
      <g
         transform="matrix(0.35277777,0,0,-0.35277777,264.90249,194.82649)"
         id="g108"
         style="fill:#1a1a1a">
        <path
           inkscape:connector-curvature="0"
           id="path110"
           style="fill:#1a1a1a;fill-opacity:1;fill-rule:nonzero;stroke:none"
           d="m 0,0 c 0,4.005 -1.755,6.435 -4.725,6.435 -2.879,0 -4.724,-2.43 -4.724,-6.435 0,-4.005 1.845,-6.39 4.724,-6.39 C -1.755,-6.39 0,-4.005 0,0 m -15.299,0 c 0,7.47 4.095,12.06 10.574,12.06 6.481,0 10.576,-4.59 10.576,-12.06 0,-7.56 -4.095,-12.015 -10.576,-12.015 -6.479,0 -10.574,4.455 -10.574,12.015" />
      </g>
      <g
         transform="matrix(0.35277777,0,0,-0.35277777,270.06222,194.66767)"
         id="g112"
         style="fill:#1a1a1a">
        <path
           inkscape:connector-curvature="0"
           id="path114"
           style="fill:#1a1a1a;fill-opacity:1;fill-rule:nonzero;stroke:none"
           d="m 0,0 -7.74,11.069 h 6.795 L 2.069,6.704 C 2.564,5.984 3.149,5.175 3.375,4.59 3.689,5.175 4.185,6.029 4.68,6.704 l 3.059,4.365 h 6.795 L 6.795,0 15.119,-11.925 H 8.324 L 4.68,-6.75 C 4.185,-6.075 3.689,-5.22 3.375,-4.635 3.149,-5.22 2.564,-6.03 2.069,-6.75 l -3.599,-5.175 h -6.795 z" />
      </g>
      <g
         transform="matrix(0.35277777,0,0,-0.35277777,285.79392,194.44546)"
         id="g116"
         style="fill:#1a1a1a">
        <path
           inkscape:connector-curvature="0"
           id="path118"
           style="fill:#1a1a1a;fill-opacity:1;fill-rule:nonzero;stroke:none"
           d="M 0,0 C 0,3.779 -1.035,5.354 -3.646,5.354 -6.39,5.354 -7.65,3.779 -7.65,0.045 v -12.6 H -13.5 V 0 c 0,3.779 -1.034,5.354 -3.645,5.354 -2.7,0 -4.004,-1.575 -4.004,-5.309 v -12.6 h -5.85 v 22.994 h 5.85 V 8.324 c 1.259,1.62 2.969,2.655 5.444,2.655 2.926,0 4.815,-1.125 5.895,-3.24 1.621,2.295 4.185,3.24 7.065,3.24 4.904,0 8.595,-2.205 8.595,-9.089 V -12.555 H 0 Z" />
      </g>
      <g
         transform="matrix(0.35277777,0,0,-0.35277777,294.36635,194.82649)"
         id="g120"
         style="fill:#1a1a1a">
        <path
           inkscape:connector-curvature="0"
           id="path122"
           style="fill:#1a1a1a;fill-opacity:1;fill-rule:nonzero;stroke:none"
           d="m 0,0 c 0,4.005 -1.755,6.435 -4.725,6.435 -2.879,0 -4.724,-2.43 -4.724,-6.435 0,-4.005 1.845,-6.39 4.724,-6.39 C -1.755,-6.39 0,-4.005 0,0 m -15.299,0 c 0,7.47 4.095,12.06 10.574,12.06 6.481,0 10.576,-4.59 10.576,-12.06 0,-7.56 -4.095,-12.015 -10.576,-12.015 -6.479,0 -10.574,4.455 -10.574,12.015" />
      </g>
      <g
         transform="matrix(0.35277777,0,0,-0.35277777,296.66868,190.76267)"
         id="g124"
         style="fill:#1a1a1a">
        <path
           inkscape:connector-curvature="0"
           id="path126"
           style="fill:#1a1a1a;fill-opacity:1;fill-rule:nonzero;stroke:none"
           d="m 0,0 h 6.029 l 4.816,-13.635 c 0.224,-0.675 0.45,-1.394 0.63,-2.114 0.179,0.72 0.405,1.439 0.629,2.114 L 16.874,0 h 6.03 L 14.489,-22.994 H 8.415 Z" />
      </g>
      <g
         transform="matrix(0.35277777,0,0,-0.35277777,310.35226,193.87392)"
         id="g128"
         style="fill:#1a1a1a">
        <path
           inkscape:connector-curvature="0"
           id="path130"
           style="fill:#1a1a1a;fill-opacity:1;fill-rule:nonzero;stroke:none"
           d="M 0,0 C -0.359,2.699 -2.114,4.229 -4.454,4.229 -7.199,4.229 -9.044,2.88 -9.404,0 Z m -15.209,-2.655 c 0,7.425 4.185,12.014 10.755,12.014 5.669,0 10.169,-3.464 10.169,-10.844 0,-0.901 0,-2.205 -0.18,-3.465 H -9.449 c 0.224,-2.97 2.474,-4.635 4.995,-4.635 2.114,0 3.644,0.72 4.949,2.385 l 3.6,-3.645 c -1.935,-2.34 -4.725,-3.87 -8.549,-3.87 -6.66,0 -10.755,4.5 -10.755,12.06" />
      </g>
    </g>
  </g>
</svg>
