<?xml version="1.0" encoding="UTF-8" standalone="no"?>
<!-- Created with Inkscape (http://www.inkscape.org/) -->

<svg
   xmlns:dc="http://purl.org/dc/elements/1.1/"
   xmlns:cc="http://creativecommons.org/ns#"
   xmlns:rdf="http://www.w3.org/1999/02/22-rdf-syntax-ns#"
   xmlns:svg="http://www.w3.org/2000/svg"
   xmlns="http://www.w3.org/2000/svg"
   xmlns:sodipodi="http://sodipodi.sourceforge.net/DTD/sodipodi-0.dtd"
   xmlns:inkscape="http://www.inkscape.org/namespaces/inkscape"
   width="835.41785"
   height="654.35382"
   viewBox="0 0 221.03764 173.13109"
   version="1.1"
   id="svg8"
   inkscape:version="0.92.2 (5c3e80d, 2017-08-06)"
   sodipodi:docname="vertical_black.svg"
   inkscape:export-filename="/home/anxhelo/Desktop/Design/Proxmove/Neutral/vertical_color.png"
   inkscape:export-xdpi="96"
   inkscape:export-ydpi="96">
  <defs
     id="defs2" />
  <sodipodi:namedview
     id="base"
     pagecolor="#ffffff"
     bordercolor="#666666"
     borderopacity="1.0"
     inkscape:pageopacity="0.0"
     inkscape:pageshadow="2"
     inkscape:zoom="0.505625"
     inkscape:cx="295.19123"
     inkscape:cy="242.11356"
     inkscape:document-units="mm"
     inkscape:current-layer="layer1"
     inkscape:document-rotation="0"
     showgrid="false"
     borderlayer="true"
     inkscape:showpageshadow="false"
     units="px"
     inkscape:pagecheckerboard="false"
     showguides="true"
     inkscape:window-width="1366"
     inkscape:window-height="715"
     inkscape:window-x="0"
     inkscape:window-y="0"
     inkscape:window-maximized="1"
     fit-margin-top="0"
     fit-margin-left="0"
     fit-margin-right="0"
     fit-margin-bottom="0">
    <inkscape:grid
       type="xygrid"
       id="grid10"
       originx="-83.099915"
       originy="-27.566135" />
  </sodipodi:namedview>
  <metadata
     id="metadata5">
    <rdf:RDF>
      <cc:Work
         rdf:about="">
        <dc:format>image/svg+xml</dc:format>
        <dc:type
           rdf:resource="http://purl.org/dc/dcmitype/StillImage" />
        <dc:title></dc:title>
      </cc:Work>
    </rdf:RDF>
  </metadata>
  <g
     inkscape:label="Layer 1"
     inkscape:groupmode="layer"
     id="layer1"
     transform="translate(-83.099873,-96.302727)">
    <g
       id="g1444"
       transform="matrix(3.3468088,0,0,3.3468088,-827.58821,-723.37819)"
       style="fill:#000000">
      <g
         transform="matrix(0.35277777,0,0,-0.35277777,292.46894,263.62297)"
         id="g188"
         style="fill:#000000">
        <path
           inkscape:connector-curvature="0"
           id="path190"
           style="fill:#000000;fill-opacity:1;fill-rule:nonzero;stroke:none"
           d="m 0,0 15.235,-9.142 1.976,-1.184 v -2.304 -16.888 l 14.526,-8.715 V 0.016 L 0,19.059 Z" />
      </g>
      <g
         transform="matrix(0.35277777,0,0,-0.35277777,289.26812,263.37631)"
         id="g192"
         style="fill:#000000">
        <path
           inkscape:connector-curvature="0"
           id="path194"
           style="fill:#000000;fill-opacity:1;fill-rule:nonzero;stroke:none"
           d="m 0,0 v -26.774 l 22.216,-13.33 v 26.775 z" />
      </g>
      <g
         transform="matrix(0.35277777,0,0,-0.35277777,310.51194,267.26583)"
         id="g196"
         style="fill:#000000">
        <path
           inkscape:connector-curvature="0"
           id="path198"
           style="fill:#000000;fill-opacity:1;fill-rule:nonzero;stroke:none"
           d="m 0,0 1.976,1.185 15.235,9.141 V 29.385 L -14.526,10.342 V -27.907 L 0,-19.191 v 16.887 z" />
      </g>
      <g
         transform="matrix(0.35277777,0,0,-0.35277777,311.94718,268.07852)"
         id="g200"
         style="fill:#000000">
        <path
           inkscape:connector-curvature="0"
           id="path202"
           style="fill:#000000;fill-opacity:1;fill-rule:nonzero;stroke:none"
           d="m 0,0 v -26.775 l 22.216,13.33 v 26.774 z" />
      </g>
      <g
         transform="matrix(0.35277777,0,0,-0.35277777,310.69453,252.33271)"
         id="g204"
         style="fill:#000000">
        <path
           inkscape:connector-curvature="0"
           id="path206"
           style="fill:#000000;fill-opacity:1;fill-rule:nonzero;stroke:none"
           d="m 0,0 -15.392,-9.234 -2.093,-1.257 -2.093,1.257 L -34.97,0 -49.359,-8.634 -17.485,-27.759 14.39,-8.634 Z" />
      </g>
      <g
         transform="matrix(0.35277777,0,0,-0.35277777,304.52611,254.3598)"
         id="g208"
         style="fill:#000000">
        <path
           inkscape:connector-curvature="0"
           id="path210"
           style="fill:#000000;fill-opacity:1;fill-rule:nonzero;stroke:none"
           d="M 0,0 22.312,13.388 0,26.775 -22.312,13.388 Z" />
      </g>
      <g
         transform="matrix(0.35277777,0,0,-0.35277777,277.60338,289.6107)"
         id="g212"
         style="fill:#000000">
        <path
           inkscape:connector-curvature="0"
           id="path214"
           style="fill:#000000;fill-opacity:1;fill-rule:nonzero;stroke:none"
           d="M 0,0 C 0,2.425 -0.547,4.311 -1.639,5.658 -2.732,7.005 -4.49,7.679 -6.915,7.679 -7.425,7.679 -7.956,7.656 -8.51,7.611 -9.063,7.566 -9.609,7.469 -10.148,7.319 V -6.107 c 0.478,-0.33 1.114,-0.637 1.908,-0.921 0.793,-0.284 1.639,-0.427 2.537,-0.427 1.975,0 3.42,0.674 4.334,2.021 C -0.457,-4.087 0,-2.275 0,0 m 5.568,0.09 c 0,-1.797 -0.232,-3.444 -0.696,-4.94 -0.464,-1.498 -1.13,-2.784 -1.998,-3.862 -0.868,-1.078 -1.953,-1.916 -3.256,-2.515 -1.302,-0.598 -2.777,-0.898 -4.423,-0.898 -1.108,0 -2.126,0.135 -3.053,0.404 -0.929,0.27 -1.692,0.569 -2.29,0.899 v -9.116 h -5.434 v 31.03 c 1.107,0.299 2.47,0.584 4.086,0.852 1.617,0.27 3.323,0.405 5.119,0.405 1.856,0 3.518,-0.285 4.985,-0.853 C 0.074,10.927 1.325,10.11 2.357,9.049 3.391,7.985 4.184,6.698 4.737,5.187 5.291,3.675 5.568,1.976 5.568,0.09" />
      </g>
      <g
         transform="matrix(0.35277777,0,0,-0.35277777,285.47678,287.15537)"
         id="g216"
         style="fill:#000000">
        <path
           inkscape:connector-curvature="0"
           id="path218"
           style="fill:#000000;fill-opacity:1;fill-rule:nonzero;stroke:none"
           d="m 0,0 c -0.449,0.149 -1.071,0.307 -1.863,0.472 -0.794,0.164 -1.715,0.247 -2.762,0.247 -0.6,0 -1.235,-0.061 -1.909,-0.18 -0.673,-0.12 -1.145,-0.225 -1.414,-0.314 v -18.816 h -5.434 V 3.772 c 1.047,0.389 2.358,0.756 3.929,1.101 1.572,0.344 3.315,0.516 5.231,0.516 0.36,0 0.779,-0.023 1.258,-0.068 C -2.485,5.276 -2.006,5.217 -1.527,5.142 -1.049,5.067 -0.584,4.978 -0.135,4.873 0.314,4.768 0.674,4.671 0.943,4.581 Z" />
      </g>
      <g
         transform="matrix(0.35277777,0,0,-0.35277777,291.87673,289.56314)"
         id="g220"
         style="fill:#000000">
        <path
           inkscape:connector-curvature="0"
           id="path222"
           style="fill:#000000;fill-opacity:1;fill-rule:nonzero;stroke:none"
           d="m 0,0 c 0,2.335 -0.502,4.183 -1.504,5.546 -1.004,1.361 -2.403,2.043 -4.199,2.043 -1.796,0 -3.196,-0.682 -4.198,-2.043 -1.004,-1.363 -1.505,-3.211 -1.505,-5.546 0,-2.365 0.501,-4.237 1.505,-5.613 1.002,-1.378 2.402,-2.066 4.198,-2.066 1.796,0 3.195,0.688 4.199,2.066 C -0.502,-4.237 0,-2.365 0,0 m 5.568,0 c 0,-1.856 -0.269,-3.548 -0.808,-5.074 -0.538,-1.528 -1.302,-2.829 -2.29,-3.907 -0.988,-1.079 -2.178,-1.916 -3.571,-2.515 -1.391,-0.599 -2.925,-0.899 -4.602,-0.899 -1.677,0 -3.204,0.3 -4.58,0.899 -1.378,0.599 -2.56,1.436 -3.548,2.515 -0.988,1.078 -1.759,2.379 -2.313,3.907 -0.554,1.526 -0.831,3.218 -0.831,5.074 0,1.855 0.277,3.54 0.831,5.052 0.554,1.511 1.332,2.806 2.335,3.885 1.003,1.077 2.193,1.908 3.571,2.492 1.376,0.583 2.888,0.875 4.535,0.875 1.646,0 3.166,-0.292 4.557,-0.875 C 0.247,10.845 1.437,10.014 2.425,8.937 3.413,7.858 4.184,6.563 4.737,5.052 5.291,3.54 5.568,1.855 5.568,0" />
      </g>
      <g
         transform="matrix(0.35277777,0,0,-0.35277777,297.76752,287.96531)"
         id="g224"
         style="fill:#000000">
        <path
           inkscape:connector-curvature="0"
           id="path226"
           style="fill:#000000;fill-opacity:1;fill-rule:nonzero;stroke:none"
           d="m 0,0 4.991,7.191 h 5.703 L 2.809,-4.059 c 1.647,-2.069 3.226,-4.16 4.738,-6.273 1.511,-2.113 2.754,-4.101 3.731,-5.963 H 5.361 c -0.274,0.55 -0.626,1.155 -1.057,1.816 -0.431,0.659 -0.892,1.346 -1.383,2.059 -0.491,0.714 -1.004,1.421 -1.538,2.121 -0.536,0.7 -1.057,1.361 -1.562,1.98 -1.052,-1.221 -2.082,-2.571 -3.089,-4.049 -1.006,-1.479 -1.84,-2.787 -2.502,-3.927 h -5.54 c 0.444,0.901 0.988,1.852 1.635,2.85 0.647,0.998 1.339,2.016 2.079,3.058 0.739,1.042 1.501,2.084 2.286,3.126 0.786,1.041 1.563,2.032 2.333,2.971 L -10.95,7.191 h 5.972 z" />
      </g>
      <g
         transform="matrix(0.35277777,0,0,-0.35277777,307.10061,289.35712)"
         id="g228"
         style="fill:#000000">
        <path
           inkscape:connector-curvature="0"
           id="path230"
           style="fill:#000000;fill-opacity:1;fill-rule:nonzero;stroke:none"
           d="M 0,0 C 0,2.454 -0.308,4.228 -0.921,5.321 -1.534,6.413 -2.68,6.96 -4.356,6.96 -4.955,6.96 -5.613,6.915 -6.332,6.825 -7.051,6.735 -7.589,6.66 -7.948,6.601 V -12.35 h -5.434 v 22.723 c 1.047,0.299 2.417,0.584 4.109,0.853 1.691,0.269 3.48,0.404 5.366,0.404 1.617,0 2.941,-0.209 3.974,-0.628 1.034,-0.42 1.893,-0.974 2.582,-1.662 0.33,0.239 0.748,0.494 1.258,0.764 0.508,0.269 1.077,0.516 1.706,0.741 0.629,0.224 1.295,0.411 1.998,0.56 0.703,0.15 1.415,0.225 2.133,0.225 1.826,0 3.33,-0.262 4.514,-0.785 1.181,-0.525 2.11,-1.258 2.784,-2.201 0.674,-0.943 1.137,-2.082 1.392,-3.413 0.253,-1.333 0.381,-2.792 0.381,-4.378 V -12.35 H 13.382 V 0 c 0,2.454 -0.3,4.228 -0.899,5.321 C 11.885,6.413 10.732,6.96 9.026,6.96 8.157,6.96 7.334,6.817 6.557,6.533 5.777,6.248 5.193,5.972 4.805,5.702 5.044,4.954 5.209,4.16 5.299,3.322 5.389,2.484 5.434,1.586 5.434,0.628 V -12.35 H 0 Z" />
      </g>
      <g
         transform="matrix(0.35277777,0,0,-0.35277777,320.81933,289.56314)"
         id="g232"
         style="fill:#000000">
        <path
           inkscape:connector-curvature="0"
           id="path234"
           style="fill:#000000;fill-opacity:1;fill-rule:nonzero;stroke:none"
           d="m 0,0 c 0,2.335 -0.502,4.183 -1.504,5.546 -1.004,1.361 -2.403,2.043 -4.199,2.043 -1.796,0 -3.196,-0.682 -4.198,-2.043 -1.004,-1.363 -1.505,-3.211 -1.505,-5.546 0,-2.365 0.501,-4.237 1.505,-5.613 1.002,-1.378 2.402,-2.066 4.198,-2.066 1.796,0 3.195,0.688 4.199,2.066 C -0.502,-4.237 0,-2.365 0,0 m 5.568,0 c 0,-1.856 -0.269,-3.548 -0.808,-5.074 -0.538,-1.528 -1.302,-2.829 -2.29,-3.907 -0.988,-1.079 -2.178,-1.916 -3.571,-2.515 -1.391,-0.599 -2.925,-0.899 -4.602,-0.899 -1.677,0 -3.204,0.3 -4.58,0.899 -1.378,0.599 -2.56,1.436 -3.548,2.515 -0.988,1.078 -1.759,2.379 -2.313,3.907 -0.554,1.526 -0.831,3.218 -0.831,5.074 0,1.855 0.277,3.54 0.831,5.052 0.554,1.511 1.332,2.806 2.335,3.885 1.003,1.077 2.193,1.908 3.571,2.492 1.376,0.583 2.888,0.875 4.535,0.875 1.646,0 3.166,-0.292 4.557,-0.875 C 0.247,10.845 1.437,10.014 2.425,8.937 3.413,7.858 4.184,6.563 4.737,5.052 5.291,3.54 5.568,1.855 5.568,0" />
      </g>
      <g
         transform="matrix(0.35277777,0,0,-0.35277777,325.91668,293.71382)"
         id="g236"
         style="fill:#000000">
        <path
           inkscape:connector-curvature="0"
           id="path238"
           style="fill:#000000;fill-opacity:1;fill-rule:nonzero;stroke:none"
           d="m 0,0 c -1.503,3.083 -3.044,6.624 -4.622,10.62 -1.579,3.997 -3.014,8.285 -4.306,12.866 h 5.795 c 0.33,-1.318 0.713,-2.732 1.15,-4.244 0.435,-1.512 0.901,-3.024 1.397,-4.535 0.496,-1.513 1.007,-2.979 1.533,-4.401 0.527,-1.422 1.015,-2.702 1.466,-3.839 0.45,1.137 0.932,2.417 1.442,3.839 0.511,1.422 1.015,2.888 1.511,4.401 0.495,1.511 0.969,3.023 1.42,4.535 0.45,1.512 0.842,2.926 1.173,4.244 h 5.614 C 12.281,18.905 10.846,14.617 9.268,10.62 7.688,6.624 6.148,3.083 4.646,0 Z" />
      </g>
      <g
         transform="matrix(0.35277777,0,0,-0.35277777,336.2337,288.75528)"
         id="g240"
         style="fill:#000000">
        <path
           inkscape:connector-curvature="0"
           id="path242"
           style="fill:#000000;fill-opacity:1;fill-rule:nonzero;stroke:none"
           d="m 0,0 c 0,0.748 -0.105,1.459 -0.314,2.133 -0.21,0.674 -0.517,1.258 -0.921,1.752 -0.405,0.493 -0.899,0.882 -1.482,1.167 -0.584,0.284 -1.28,0.427 -2.089,0.427 -0.838,0 -1.571,-0.158 -2.2,-0.472 C -7.635,4.692 -8.166,4.28 -8.6,3.772 -9.034,3.263 -9.371,2.679 -9.61,2.021 -9.851,1.362 -10.015,0.688 -10.104,0 Z m -15.763,-2.425 c 0,2.066 0.307,3.876 0.921,5.434 0.613,1.555 1.429,2.851 2.447,3.884 1.018,1.033 2.185,1.811 3.503,2.336 1.317,0.523 2.664,0.785 4.041,0.785 3.234,0 5.755,-1.003 7.568,-3.009 1.81,-2.006 2.717,-5 2.717,-8.981 0,-0.299 -0.008,-0.636 -0.023,-1.01 C 5.396,-3.361 5.373,-3.698 5.344,-3.997 h -15.493 c 0.149,-1.886 0.815,-3.345 1.998,-4.378 1.182,-1.033 2.896,-1.549 5.142,-1.549 1.317,0 2.522,0.119 3.614,0.359 1.093,0.239 1.955,0.494 2.583,0.763 l 0.718,-4.445 c -0.3,-0.15 -0.711,-0.308 -1.234,-0.472 -0.525,-0.165 -1.123,-0.314 -1.797,-0.449 -0.674,-0.135 -1.399,-0.247 -2.178,-0.337 -0.779,-0.09 -1.571,-0.135 -2.38,-0.135 -2.065,0 -3.862,0.308 -5.388,0.921 -1.528,0.614 -2.784,1.467 -3.773,2.56 -0.987,1.093 -1.721,2.38 -2.2,3.862 -0.479,1.482 -0.719,3.106 -0.719,4.872" />
      </g>
    </g>
  </g>
</svg>
